<svg xmlns="http://www.w3.org/2000/svg" width="84" height="84" fill="none" viewBox="0 0 84 84"><g clip-path="url(#a)"><mask id="b" width="84" height="84" x="0" y="0" maskUnits="userSpaceOnUse" style="mask-type:alpha"><circle cx="42" cy="42" r="42" fill="#d9d9d9" transform="matrix(-1 0 0 1 84 0)"/></mask><g filter="url(#c)" mask="url(#b)"><path fill="url(#d)" d="M28-9c7.895 0 15.37 1.795 22.042 4.997C55.365 5.625 61.852 21.551 61.853 42c0 20.448-6.488 36.374-11.81 46.002A50.8 50.8 0 0 1 28 93C-.167 93-23 70.167-23 42-23 13.834-.167-9 28-9"/></g></g><defs><linearGradient id="d" x1="19.427" x2="19.427" y1="-9" y2="93" gradientUnits="userSpaceOnUse"><stop stop-color="#ffce47"/><stop offset="1" stop-color="#ffb300"/></linearGradient><clipPath id="a"><path fill="#fff" d="M84 0H0v84h84z"/></clipPath><filter id="c" width="113.253" height="130.4" x="-37.2" y="-23.2" color-interpolation-filters="sRGB" filterUnits="userSpaceOnUse"><feFlood flood-opacity="0" result="BackgroundImageFix"/><feBlend in="SourceGraphic" in2="BackgroundImageFix" result="shape"/><feGaussianBlur result="effect1_foregroundBlur_2026_93142" stdDeviation="7.1"/></filter></defs></svg>