<svg xmlns="http://www.w3.org/2000/svg" width="84" height="84" fill="none" viewBox="0 0 84 84"><g clip-path="url(#a)"><mask id="b" width="84" height="84" x="0" y="0" maskUnits="userSpaceOnUse" style="mask-type:alpha"><circle cx="42" cy="42" r="42" fill="#d9d9d9"/></mask><g filter="url(#c)" mask="url(#b)"><path fill="url(#d)" d="M56-9a50.8 50.8 0 0 0-22.042 4.997C28.635 5.625 22.148 21.551 22.147 42c0 20.448 6.488 36.374 11.81 46.002A50.8 50.8 0 0 0 56 93c28.167 0 51-22.833 51-51 0-28.166-22.833-51-51-51"/></g></g><defs><linearGradient id="d" x1="64.573" x2="64.573" y1="-9" y2="93" gradientUnits="userSpaceOnUse"><stop stop-color="#ffce47"/><stop offset="1" stop-color="#ffb300"/></linearGradient><clipPath id="a"><path fill="#fff" d="M0 0h84v84H0z"/></clipPath><filter id="c" width="113.253" height="130.4" x="7.947" y="-23.2" color-interpolation-filters="sRGB" filterUnits="userSpaceOnUse"><feFlood flood-opacity="0" result="BackgroundImageFix"/><feBlend in="SourceGraphic" in2="BackgroundImageFix" result="shape"/><feGaussianBlur result="effect1_foregroundBlur_2026_93114" stdDeviation="7.1"/></filter></defs></svg>